<?xml version="1.0" encoding="UTF-8" standalone="no"?>
<!DOCTYPE svg PUBLIC "-//W3C//DTD SVG 1.1//EN"
 "http://www.w3.org/Graphics/SVG/1.1/DTD/svg11.dtd">
<!-- Generated by graphviz version 14.1.2 (20260124.0452)
 -->
<!-- Title: G Pages: 1 -->
<svg width="344pt" height="262pt"
 viewBox="0.00 0.00 344.00 262.00" xmlns="http://www.w3.org/2000/svg" xmlns:xlink="http://www.w3.org/1999/xlink">
<g id="graph0" class="graph" transform="scale(1 1) rotate(0) translate(4 258)">
<title>G</title><style>.edge>path:hover{stroke-width:8}</style>
<polygon fill="white" stroke="none" points="-4,4 -4,-258 340.25,-258 340.25,4 -4,4"/>
<!-- annotated_doc -->
<g id="node1" class="node">
<title>annotated_doc</title><style>.edge>path:hover{stroke-width:8}</style>
<polygon fill="#f31616" stroke="black" points="79.75,-254 76.75,-258 55.75,-258 52.75,-254 0,-254 0,-218 79.75,-218 79.75,-254"/>
<text xml:space="preserve" text-anchor="middle" x="39.88" y="-232.5" font-family="Helvetica,sans-Serif" font-size="10.00" fill="#ffffff">annotated_doc</text>
</g>
<!-- fastapi -->
<g id="node2" class="node">
<title>fastapi</title><style>.edge>path:hover{stroke-width:8}</style>
<polygon fill="blue" stroke="black" points="223.88,-145 220.88,-149 199.88,-149 196.88,-145 169.88,-145 169.88,-109 223.88,-109 223.88,-145"/>
<text xml:space="preserve" text-anchor="middle" x="196.88" y="-123.5" font-family="Helvetica,sans-Serif" font-size="10.00" fill="white">fastapi</text>
</g>
<!-- annotated_doc&#45;&gt;fastapi -->
<g id="edge1" class="edge">
<title>annotated_doc&#45;&gt;fastapi</title><style>.edge>path:hover{stroke-width:8}</style>
<path fill="none" stroke="black" d="M196.88,-181C199.13,-173.16 199.83,-164.39 199.77,-156.28"/>
<polygon fill="#f31616" stroke="black" points="203.28,-156.38 199.31,-146.56 196.29,-156.71 203.28,-156.38"/>
<path fill="none" stroke="black" d="M80.24,-220.95C83.16,-219.95 86.06,-218.96 88.88,-218 136.78,-201.71 182.87,-230.62 196.88,-182"/>
</g>
<!-- main_py -->
<g id="node3" class="node">
<title>main_py</title><style>.edge>path:hover{stroke-width:8}</style>
<ellipse fill="#4b8b4b" stroke="black" cx="196.88" cy="-18" rx="30.37" ry="18"/>
<text xml:space="preserve" text-anchor="middle" x="196.88" y="-14.5" font-family="Helvetica,sans-Serif" font-size="10.00" fill="#ffffff">main.py</text>
</g>
<!-- fastapi&#45;&gt;main_py -->
<g id="edge2" class="edge">
<title>fastapi&#45;&gt;main_py</title><style>.edge>path:hover{stroke-width:8}</style>
<path fill="none" stroke="black" d="M196.88,-108.81C196.88,-92.27 196.88,-66.98 196.88,-47.44"/>
<polygon fill="blue" stroke="black" points="200.38,-47.66 196.88,-37.66 193.38,-47.66 200.38,-47.66"/>
</g>
<!-- pydantic -->
<g id="node4" class="node">
<title>pydantic</title><style>.edge>path:hover{stroke-width:8}</style>
<polygon fill="#26d9d9" stroke="black" points="151.88,-254 148.88,-258 127.88,-258 124.88,-254 97.88,-254 97.88,-218 151.88,-218 151.88,-254"/>
<text xml:space="preserve" text-anchor="middle" x="124.88" y="-232.5" font-family="Helvetica,sans-Serif" font-size="10.00" fill="#000000">pydantic</text>
</g>
<!-- pydantic&#45;&gt;fastapi -->
<g id="edge3" class="edge">
<title>pydantic&#45;&gt;fastapi</title><style>.edge>path:hover{stroke-width:8}</style>
<path fill="none" stroke="black" d="M151.99,-219.85C171.07,-208.38 193.76,-192.81 196.88,-182"/>
</g>
<!-- starlette -->
<g id="node5" class="node">
<title>starlette</title><style>.edge>path:hover{stroke-width:8}</style>
<polygon fill="#1010f9" stroke="black" points="223.88,-254 220.88,-258 199.88,-258 196.88,-254 169.88,-254 169.88,-218 223.88,-218 223.88,-254"/>
<text xml:space="preserve" text-anchor="middle" x="196.88" y="-232.5" font-family="Helvetica,sans-Serif" font-size="10.00" fill="#ffffff">starlette</text>
</g>
<!-- starlette&#45;&gt;fastapi -->
<g id="edge4" class="edge">
<title>starlette&#45;&gt;fastapi</title><style>.edge>path:hover{stroke-width:8}</style>
<path fill="none" stroke="black" d="M194.51,-217.96C193.62,-207.4 193.51,-193.67 196.88,-182"/>
</g>
<!-- typing_extensions -->
<g id="node6" class="node">
<title>typing_extensions</title><style>.edge>path:hover{stroke-width:8}</style>
<polygon fill="#e722e7" stroke="black" points="336.25,-254 333.25,-258 312.25,-258 309.25,-254 241.5,-254 241.5,-218 336.25,-218 336.25,-254"/>
<text xml:space="preserve" text-anchor="middle" x="288.88" y="-232.5" font-family="Helvetica,sans-Serif" font-size="10.00" fill="#ffffff">typing_extensions</text>
</g>
<!-- typing_extensions&#45;&gt;fastapi -->
<g id="edge5" class="edge">
<title>typing_extensions&#45;&gt;fastapi</title><style>.edge>path:hover{stroke-width:8}</style>
<path fill="none" stroke="black" d="M241.82,-217.61C217.52,-207.1 193.54,-193.56 196.88,-182"/>
</g>
</g>
</svg>
